<svg width="495" height="121" viewBox="0 0 495 121" fill="none" xmlns="http://www.w3.org/2000/svg">
<path d="M68.9 27.32C66.48 21.79 63.04 16.91 58.68 12.8C54.32 8.69999 49.15 5.5 43.34 3.31C37.54 1.12 31.12 0.0100098 24.26 0.0100098H0V20.34H24.01C29.02 20.34 33.46 21.36 37.21 23.37C40.92 25.36 43.85 28.29 45.92 32.08C48.01 35.91 49.07 40.52 49.07 45.77C49.07 51.02 48.03 55.77 45.98 59.6C43.95 63.39 41.04 66.34 37.33 68.37C33.59 70.42 29.11 71.46 24.01 71.46H0V91.79H24.51C31.29 91.79 37.68 90.66 43.48 88.42C49.3 86.18 54.43 82.96 58.75 78.86C63.07 74.76 66.49 69.85 68.9 64.28C71.32 58.71 72.54 52.52 72.54 45.88C72.54 39.24 71.31 32.83 68.89 27.29L68.9 27.32Z" fill="#192E50"/>
<path d="M105.97 28.05H85.74V91.8801H105.97V28.05Z" fill="#192E50"/>
<path d="M85.74 21.07V0H105.97V0.839996C105.97 12.01 96.91 21.07 85.74 21.07Z" fill="#192E50"/>
<path d="M216.81 21.07C205.64 21.07 196.58 12.01 196.58 0.839996V0H216.81V21.07Z" fill="#192E50"/>
<path d="M216.81 28.05H196.58V91.8801H216.81V28.05Z" fill="#192E50"/>
<path d="M328.63 39.8901C326.44 36.2201 323.42 33.3801 319.57 31.3701C315.72 29.3601 311.38 28.36 306.57 28.36C301.76 28.36 297.07 29.3801 293.04 31.4301C290.33 32.8101 288.03 34.63 286.07 36.83C284.23 34.59 282.03 32.7401 279.45 31.3101C275.9 29.3501 271.94 28.3701 267.56 28.3701C262.74 28.3701 258.48 29.3301 254.75 31.2501C253.08 32.1101 251.59 33.1601 250.22 34.3501V28.0601H229.99V91.8901H250.22V55.5201C250.22 53.4701 250.68 51.7201 251.6 50.2701C252.52 48.82 253.77 47.6901 255.34 46.8801C256.92 46.0701 258.71 45.6601 260.73 45.6601C263.62 45.6601 266.05 46.5401 268.02 48.2801C269.99 50.0301 270.97 52.4401 270.97 55.5201V91.8901H291.2V55.5201C291.2 53.4701 291.64 51.7201 292.51 50.2701C293.39 48.82 294.63 47.6901 296.25 46.8801C297.87 46.0701 299.64 45.6601 301.57 45.6601C304.37 45.6601 306.76 46.5401 308.73 48.2801C310.7 50.0301 311.68 52.4401 311.68 55.5201V91.8901H331.91V53.2201C331.91 48.0101 330.81 43.5701 328.63 39.9001V39.8901Z" fill="#192E50"/>
<path d="M391.82 28.05V32.62C390.7 31.87 389.52 31.17 388.22 30.58C384.69 28.97 380.74 28.17 376.36 28.17C370.36 28.17 365.02 29.54 360.33 32.28C355.64 35.01 351.93 38.81 349.2 43.65C346.47 48.48 345.12 53.98 345.12 60.13C345.12 66.28 346.47 71.73 349.2 76.48C351.93 81.24 355.66 85.03 360.41 87.85C365.15 90.67 370.46 92.07 376.37 92.07C380.84 92.07 384.83 91.27 388.36 89.68C389.61 89.11 390.75 88.44 391.83 87.72V91.7H411.66V28.03H391.83L391.82 28.05ZM375.64 73.2C368.29 73.2 362.31 67.26 362.31 59.94C362.31 52.62 368.29 46.68 375.64 46.68C382.99 46.68 388.99 52.62 388.99 59.94C388.99 67.26 383.01 73.2 375.64 73.2Z" fill="#192E50"/>
<path d="M180.835 107.821C173.26 115.93 162.472 121 150.5 121C138.528 121 127.74 115.93 120.165 107.821L131.977 95.0254C136.625 99.9364 143.205 103 150.5 103C157.795 103 164.375 99.9364 169.023 95.0254L180.835 107.821Z" fill="url(#paint0_linear_2_549)"/>
<path d="M150.995 91C168.671 91 183 76.6715 183 59.005C183 41.3385 168.671 27 150.995 27C133.319 27 119 41.3285 119 59.005C119 76.6815 133.319 91 150.995 91ZM150.995 44.7463C158.847 44.7463 165.254 51.1333 165.254 59.005C165.254 66.8767 158.847 73.2538 150.995 73.2538C143.143 73.2538 136.746 66.8667 136.746 59.005C136.746 51.1433 143.133 44.7463 150.995 44.7463Z" fill="#192E50"/>
<path d="M456.55 42.95L447.55 28.05H424.66L444.7 57.8C448.89 52.95 452.96 47.9001 456.54 42.9601L456.55 42.95Z" fill="#192E50"/>
<path d="M457.15 73.56L468.17 91.88H490.95L470.6 61.4C466.46 65.51 461.95 69.64 457.15 73.56Z" fill="#192E50"/>
<path d="M468.81 28C457.47 53.59 415.64 92.09 415.64 92.09C456.247 83.6929 492.849 31.0704 494.954 28H468.81Z" fill="url(#paint1_linear_2_549)"/>
<defs>
<linearGradient id="paint0_linear_2_549" x1="120.158" y1="108.013" x2="180.835" y2="108.013" gradientUnits="userSpaceOnUse">
<stop stop-color="#5DBF8F"/>
<stop offset="1" stop-color="#1EBAED"/>
</linearGradient>
<linearGradient id="paint1_linear_2_549" x1="415.63" y1="60.045" x2="494.954" y2="60.045" gradientUnits="userSpaceOnUse">
<stop stop-color="#5DBF8F"/>
<stop offset="1" stop-color="#1EBAED"/>
</linearGradient>
</defs>
</svg>
